Coordinates

Units are S.I. units (second, meters, Newtons, ...)
If the header above contains a line with 'inDegrees', this indicates whether rotational values are in degrees (yes) or radians (no).

inDegrees=no
nColumns=21
nRows=25
DataType=double
version=3
OpenSimVersion=4.6-2026-03-31-d6972f9e6
endheader
time	/jointset/ground_pelvis/pelvis_tilt/value	/jointset/ground_pelvis/pelvis_list/value	/jointset/ground_pelvis/pelvis_rotation/value	/jointset/ground_pelvis/pelvis_tx/value	/jointset/ground_pelvis/pelvis_ty/value	/jointset/ground_pelvis/pelvis_tz/value	/jointset/hip_r/hip_flexion_r/value	/jointset/hip_r/hip_adduction_r/value	/jointset/hip_r/hip_rotation_r/value	/jointset/walker_knee_r/knee_angle_r/value	/jointset/patellofemoral_r/knee_angle_r_beta/value	/jointset/ankle_r/ankle_angle_r/value	/jointset/subtalar_r/subtalar_angle_r/value	/jointset/hip_l/hip_flexion_l/value	/jointset/hip_l/hip_adduction_l/value	/jointset/hip_l/hip_rotation_l/value	/jointset/walker_knee_l/knee_angle_l/value	/jointset/patellofemoral_l/knee_angle_l_beta/value	/jointset/ankle_l/ankle_angle_l/value	/jointset/subtalar_l/subtalar_angle_l/value
139.996	-0.08335526439447155	-0.13085288556531	1.56893542707593	0.8601303600000598	1.010915510000063	-1.263716930000075	-0.2374002128183817	-0.06453996649362075	0.1542033564266845	0.4240685814293434	0.4240685800000292	-0.3528939355015631	-0.0139474493023971	0.4721474338930156	0.0765484511646954	-0.1221703048546903	0.2649993636360966	0.2649993600000188	0.03839124380004156	0.05511440959240437
140	-0.07915242334199732	-0.1272489001864154	1.568912590804692	0.8599285357997533	1.009700425618303	-1.263715834382029	-0.2347030101645853	-0.0594884768931734	0.1608011158401352	0.4576613769014909	0.4576613758009456	-0.3370908390467974	-0.00453512843693783	0.4650650004403417	0.07368132127083774	-0.1195645969218895	0.2535766870628438	0.2535766838237482	0.04204302516880478	0.06782492982094249
140.004	-0.07498861139530998	-0.1235649481184177	1.568889364628274	0.8597280469569247	1.00847359809055	-1.263711281984046	-0.2320539459283876	-0.05451862069180631	0.1672201750909756	0.491260690127684	0.4912606893492822	-0.3214756442823861	0.0048290051749257	0.4579376070724262	0.07084265034373601	-0.116967392798577	0.2425294216094782	0.2425294187550451	0.04568243059180008	0.08015195770973965
140.008	-0.07090441505354578	-0.1197252065896	1.568865408366819	0.85953015915338	1.007223353335335	-1.263699669042087	-0.2294955740224179	-0.04971401865413252	0.1732860427600634	0.5248769240574883	0.5248769235874376	-0.3062289622855405	0.01409178176631908	0.4507266470299472	0.06806271691508639	-0.1143891046074308	0.2322294010344373	0.2322293985414897	0.04930482296995549	0.09172455947535053
140.012	-0.06694342995413585	-0.1156620366113175	1.568840477495018	0.8593360063557665	1.00593815162428	-1.263677112164391	-0.2270596506686663	-0.04516204844814073	0.1788326341109133	0.5585275622790798	0.5585275620956559	-0.2915175330003724	0.02319056741839814	0.4434058642568623	0.06537532288866264	-0.1118437584346341	0.223040957278063	0.2230409551150725	0.05291993514747258	0.1021962762005367
140.016	-0.06315349025827777	-0.1113197607332916	1.568814462328636	0.8591465423038557	1.004606651548933	-1.263639344264804	-0.2247626512769811	-0.04095519043794679	0.1837064095960051	0.5922391495362229	0.5922391496092971	-0.2774889287423307	0.03204968283586056	0.4359666070949458	0.0628192554380084	-0.1093502827261786	0.2153163904370282	0.2153163885671363	0.05655654013540789	0.1112558537158513
140.02	-0.05958754890031234	-0.1066579764144115	1.568787418353623	0.8589625089897132	1.003217781412608	-1.263581651856465	-0.2226023193444724	-0.03719176763286652	0.1877703577482145	0.6260477820138647	0.6260477823051647	-0.264267876220309	0.04057798283260431	0.4284219473129794	0.06043937192467254	-0.1069331981227042	0.2093907068110479	0.2093907051951439	0.06026466659246406	0.1186363684636141
140.024	-0.05630408662702444	-0.1016542068235171	1.568759585822056	0.8587844231023111	1.001760828757307	-1.263498863037896	-0.2205554462975325	-0.0339759360558467	0.1909076921354336	0.659998077089847	0.6599980775541259	-0.2519542608284456	0.04866773289076821	0.4208093322086752	0.05828717957288131	-0.1046226106033476	0.2055756266144243	0.2055756252139051	0.06411520663832798	0.1241224435862418
140.028	-0.05336695520478307	-0.0963057290892614	1.568731396657209	0.8586125793316777	1.000225557537749	-1.263385390821517	-0.2185769669724273	-0.03141683704149416	0.1930251237631296	0.6941407815423877	0.6941407821294335	-0.2406226648051862	0.05619482391399836	0.4131915345517346	0.0564208120646218	-0.1024534909903714	0.2041529675229071	0.2041529663019252	0.06819703893473834	0.1275553590244203
140.032	-0.0508446154126053	-0.09063048988033631	1.568703466808024	0.8584470677286301	0.998602358631856	-1.263235331671202	-0.2166003326535081	-0.02962690292044169	0.1940555837695075	0.7285293102775413	0.7285293109348476	-0.2303231521727779	0.06302035795443796	0.4056557989345825	0.05490436471359073	-0.1004642889590493	0.2053675976903916	0.2053675966175543	0.07261198974271893	0.1288359679226427
140.036	-0.04880880839312936	-0.08466712735548818	1.568676572572944	0.8582877999514119	0.9968824311974779	-1.263042614562693	-0.2145389760233206	-0.02871941249513967	0.1939602881972105	0.7632156072238678	0.7632156078997268	-0.2210828915684395	0.0689937562044444	0.398311264394173	0.0538066347609434	-0.09869499863690524	0.2094202311198369	0.2094202301692932	0.0774680998707586	0.1279254146378224
140.04	-0.04733274967863332	-0.07847417937178496	1.568651610321899	0.8581345381360516	0.9950579875086035	-1.262801191962533	-0.2122886136010759	-0.0288054554297546	0.1927300644745351	0.7982457555860966	0.7982457562328055	-0.2129081906772085	0.07395752433007746	0.3912848665619459	0.05319936867024957	-0.0971848483231245	0.2164603936401307	0.2164603927918858	0.08287178381589014	0.1248437347273806
140.044	-0.04648891357947459	-0.07212848009142597	1.568629540958361	0.8579869236933706	0.9931224814119538	-1.26250526153679	-0.2097302519446064	-0.02999042314215329	0.1903859047594356	0.8336556907746526	0.833655691351429	-0.2057867252656005	0.07775339418847957	0.3847158832397544	0.05315509059791926	-0.09596980258949704	0.2265799154610535	0.2265799147004712	0.08891957203363264	0.119666552572631
140.048	-0.04634646265908276	-0.06572269031025563	1.568611323011376	0.8578445059730523	0.9910708624825489	-1.262149504239342	-0.2067338670459316	-0.03237012355534467	0.186978706459394	0.8694672888185057	0.8694672892936902	-0.1996898948763069	0.08022917284995759	0.3787492983619223	0.05374456528993876	-0.09508006004690853	0.2398073967840475	0.2398073961007934	0.09569023336297579	0.1125201641070906
140.052	-0.04696847131713235	-0.05936207434637783	1.568597840266182	0.8577067651678351	0.9888998335224618	-1.261729319117455	-0.203162550804656	-0.0360267593575039	0.1825880712207921	0.9056851405999217	0.9056851409522702	-0.1945750081261369	0.08124582186491985	0.3735284638198403	0.05503404847991319	-0.09453773090319133	0.2561042896135876	0.2561042890004138	0.1032381457880845	0.1035751538007512
140.056	-0.04840918026701125	-0.05316083166578387	1.568589830027325	0.8575731199992822	0.9866080678593888	-1.261241033823088	-0.1988767186103816	-0.04102512845594855	0.1773200179960377	0.9422943356167854	0.942294335835995	-0.1903868151281518	0.08068465426674984	0.3691878025304204	0.05708256908063212	-0.09435488839856498	0.2753632846599371	0.2753632841116421	0.1115886810404671	0.09303859480826586
140.06	-0.0507114331811507	-0.04723820712734775	1.568587816220344	0.8574429210781708	0.984196364162464	-1.260682077951857	-0.193738133738123	-0.04740925391068933	0.1713036561131747	0.9792593843467666	0.9792593844335091	-0.1870582820251448	0.07845440695707853	0.3658460658093763	0.05993937832838959	-0.09453219505978828	0.2974093395579889	0.2974093390708102	0.120736033279209	0.08114518223277151
140.064	-0.05390428772410182	-0.041714381884061	1.56859204988027	0.8573154445594672	0.9816677542915366	-1.260051116461247	-0.187613828654853	-0.05519940012153952	0.1646870872497238	1.016524154282149	1.016524154247674	-0.1845110374404478	0.07449758170764625	0.3636002169745445	0.06364150968225439	-0.09505827944868099	0.3220032160314707	0.3220032156030783	0.1306435462821121	0.06814809143132222
140.068	-0.05800076628230126	-0.03670609066385624	1.568602460350391	0.8571899014952583	0.9790275878196741	-1.259348143433231	-0.1803800998875053	-0.06438939421140832	0.1576328357147951	1.054012605055143	1.054012604920216	-0.182655986243967	0.06879542273913652	0.3625198872227287	0.06821136201068279	-0.09590996529403928	0.3488472317233051	0.3488472313532707	0.1412463790855701	0.05431040452292207
140.072	-0.06299579567632127	-0.03232202091843649	1.568618622459228	0.8570654694215362	0.9762835994072604	-1.258574534487751	-0.1719266286329237	-0.07494430184653654	0.150313002367044	1.091630148636167	1.091630148429081	-0.1813943179909635	0.06137115872028297	0.3626425070590553	0.07365432668250708	-0.09705334800914174	0.3775930017045269	0.3775930013947924	0.1524562444174594	0.03989763205841083
140.076	-0.0688644347976848	-0.02865821691814181	1.568639745816088	0.8569413447071377	0.9734459456182426	-1.257733054060528	-0.1621605729306584	-0.08679858965269614	0.142904261715251	1.129265520472887	1.129265520226608	-0.1806189384072828	0.05229137430328637	0.3639694102159501	0.07995655821317889	-0.0984455969932852	0.4078509617765593	0.407850961531368	0.1641678232400523	0.02517151984398555
140.08	-0.07556048484156429	-0.02579384913083962	1.568664691839483	0.8568168097209734	0.9705271863029664	-1.256827813272316	-0.1510102995288263	-0.09985491114269092	0.1355828039351682	1.166793088439946	1.166793088188772	-0.1802162796898302	0.04166552578326942	0.3664633139644526	0.08708300771664136	-0.100037260690214	0.4392013791745896	0.4392013789996789	0.1762663024785111	0.01038511114362647
140.084	-0.08301558710705871	-0.02378767273347945	1.568692022553492	0.8566913068764281	0.9675421913111252	-1.255864177168105	-0.1384284582451205	-0.1139836622216018	0.1285193291725634	1.204075513545609	1.204075513321872	-0.1800684135977316	0.02964371178261756	0.3700474652838794	0.09497586997184103	-0.1017747921053612	0.4712064255296748	0.4712064254309613	0.1886353631204026	-0.00422108624651106
140.088	-0.09113894985206346	-0.02267532001861704	1.568720082717462	0.8565645109610648	0.96450797156917	-1.254848626179041	-0.1243943109614545	-0.1290234827328439	0.1218742118645666	1.240966624330869	1.240966624162141	-0.1800553741864057	0.01641286555567913	0.374606462886079	0.1035536500507321	-0.1036030131157203	0.5034227572932028	0.5034227572753887	0.2011648978707222	-0.01842203536697926
140.092	-0.09981786368504601	-0.02246746653588415	1.568747113981085	0.8564363908963467	0.9614434446379502	-1.253788582128049	-0.1089153378152612	-0.1447828906839037	0.1157929524872315	1.277314349101069	1.277314349008249	-0.1800575912491106	0.002191575921056826	0.3799885883934639	0.1127110829091073	-0.1054672933740289	0.5354139754232227	0.5354139754886598	0.2137577868911453	-0.03201044504195655
